<?xml version="1.0" encoding="UTF-8" standalone="no"?>
<!DOCTYPE svg PUBLIC "-//W3C//DTD SVG 1.1//EN" "http://www.w3.org/Graphics/SVG/1.1/DTD/svg11.dtd">
<svg width="100%" height="100%" viewBox="0 0 1024 1024" version="1.1" xmlns="http://www.w3.org/2000/svg" xmlns:xlink="http://www.w3.org/1999/xlink" xml:space="preserve" xmlns:serif="http://www.serif.com/" style="fill-rule:evenodd;clip-rule:evenodd;stroke-linejoin:round;stroke-miterlimit:2;">
    <g id="Logoe" transform="matrix(0.995766,0,0,2.66834,-3126.15,-1605.08)">
        <g transform="matrix(1.00425,0,0,0.374765,3139.45,608.647)">
            <path d="M539.008,519.471C607.175,519.471 620.938,721.094 675.509,721.094L678.449,721.094C695.781,721.094 711.627,713.097 723.882,700.842C736.138,688.587 731.94,631.074 722.596,623.87C679.202,590.616 651.212,538.268 651.212,479.435C651.212,379.034 732.725,297.522 833.125,297.522C933.526,297.522 1015.04,379.034 1015.04,479.435C1015.04,531.237 993.339,578.012 958.538,611.158C946.712,622.38 913.275,685.105 947.282,747.068C981.288,809.032 1032.99,909.283 980.189,909.283L71.32,909.283C15.939,909.283 -35.413,749.314 32.289,599.122C124.065,395.526 158.55,389.746 158.55,322.995C158.55,264.879 74.141,226.259 32.289,191.962C12.65,175.868 62.657,63.717 88.048,63.717C181.862,63.717 365.425,189.161 413.088,281.874C452.821,359.162 276.534,451.05 230.961,669.14C223.383,705.404 247.947,752.027 284.995,752.027C373.462,752.027 366.062,519.471 539.008,519.471Z" style="fill:rgb(0,187,249);"/>
        </g>
        <g transform="matrix(1.09677,0,0,0.409292,-1153.35,-74.0256)">
            <circle cx="4678.05" cy="2111.4" r="173.587" style="fill:rgb(241,91,181);"/>
        </g>
    </g>
</svg>
